<svg width="47" height="41" viewBox="0 0 47 41" fill="none" xmlns="http://www.w3.org/2000/svg">
<path d="M4.25568 16.5508L9.66106 21.9735L21.8284 9.77154L16.4211 4.34695L4.25376 16.5489L4.25568 16.5508ZM12.7894 32.1693L16.8439 28.1014C17.0212 27.9231 17.232 27.7817 17.4641 27.6852C17.6963 27.5886 17.9452 27.539 18.1967 27.539C18.4481 27.539 18.697 27.5886 18.9292 27.6852C19.1613 27.7817 19.3721 27.9231 19.5495 28.1014C19.9079 28.4615 20.1092 28.9489 20.1092 29.4571C20.1092 29.9652 19.9079 30.4526 19.5495 30.8127L15.4949 34.8807C15.8534 35.2408 16.0547 35.7282 16.0547 36.2364C16.0547 36.7445 15.8534 37.2319 15.4949 37.592L12.7874 40.3034C12.6102 40.4813 12.3995 40.6225 12.1675 40.7189C11.9355 40.8152 11.6868 40.8648 11.4356 40.8648C11.1844 40.8648 10.9357 40.8152 10.7037 40.7189C10.4718 40.6225 10.2611 40.4813 10.0838 40.3034L7.38015 37.5939C7.02109 37.2337 6.81946 36.7459 6.81946 36.2373C6.81946 35.7287 7.02109 35.2409 7.38015 34.8807L10.0838 32.1693C10.2611 31.9914 10.4718 31.8502 10.7037 31.7538C10.9357 31.6575 11.1844 31.6079 11.4356 31.6079C11.6868 31.6079 11.9355 31.6575 12.1675 31.7538C12.3995 31.8502 12.6102 31.9914 12.7874 32.1693H12.7894ZM30.364 19.9674L42.5295 7.76542L39.8258 5.05217L27.6604 17.2541C26.1673 15.7553 25.9079 13.5897 27.0801 12.4118L37.7025 1.7586C38.8747 0.582596 41.0364 0.842008 42.5295 2.34083L45.2331 5.05024C46.7281 6.54907 46.9875 8.71852 45.8135 9.8926L35.191 20.5477C34.0189 21.7237 31.8571 21.4643 30.364 19.9655V19.9674ZM28.5885 27.3962L19.1248 17.9075L17.772 19.2641L27.2357 28.7547L28.5885 27.3981V27.3962ZM31.2922 30.1094L29.9394 31.4641L33.3194 34.8538C33.6922 35.2285 34.2994 35.2285 34.6703 34.8538C34.8492 34.6738 34.9497 34.4303 34.9497 34.1764C34.9497 33.9226 34.8492 33.6791 34.6703 33.4991L31.2922 30.1094ZM4.37098 11.009C4.11501 10.4722 4.03134 9.86941 4.13145 9.2832C4.23156 8.69699 4.51055 8.1561 4.93015 7.73468L7.6338 5.02526C8.0525 4.60461 8.59159 4.32447 9.17647 4.2236C9.76136 4.12274 10.3631 4.20613 10.8985 4.46224L13.7175 1.63562C14.072 1.2797 14.4934 0.997287 14.9574 0.804589C15.4213 0.61189 15.9188 0.512695 16.4211 0.512695C16.9235 0.512695 17.421 0.61189 17.8849 0.804589C18.3489 0.997287 18.7702 1.2797 19.1248 1.63562L24.5321 7.06021C25.249 7.78043 25.6515 8.7553 25.6515 9.77154C25.6515 10.7878 25.249 11.7627 24.5321 12.4829L21.8284 15.1942L37.3739 30.7858C38.2704 31.6861 38.7737 32.9049 38.7737 34.1755C38.7737 35.446 38.2704 36.6648 37.3739 37.5651C36.9308 38.01 36.4042 38.363 35.8243 38.6038C35.2445 38.8447 34.6227 38.9687 33.9948 38.9687C33.3669 38.9687 32.7452 38.8447 32.1654 38.6038C31.5855 38.363 31.0589 38.01 30.6158 37.5651L15.0703 21.9735L12.3647 24.6848C10.8716 26.1837 8.45047 26.1837 6.95741 24.6848L1.55011 19.2622C0.832569 18.5419 0.429687 17.5666 0.429688 16.5499C0.429687 15.5332 0.832569 14.5579 1.55011 13.8376L4.36905 11.0129L4.37098 11.009Z" fill="#DD6265"/>
</svg>
