<svg width="49" height="39" viewBox="0 0 49 39" fill="none" xmlns="http://www.w3.org/2000/svg">
<path d="M30.9735 0.152105C32.2093 0.627418 32.8438 2.06524 32.3947 3.36759L21.0157 36.3733C20.5641 37.6756 19.2024 38.3458 17.9689 37.8729C16.7331 37.3976 16.0986 35.9598 16.5478 34.6574L27.9267 1.65172C28.3783 0.34936 29.7401 -0.320831 30.9735 0.152105V0.152105ZM6.44261 19.6209L14.8461 28.495C15.773 29.4741 15.773 31.0617 14.8461 32.0408C14.6319 32.2725 14.372 32.4574 14.0828 32.5838C13.7937 32.7103 13.4815 32.7755 13.1659 32.7755C12.8503 32.7755 12.5381 32.7103 12.249 32.5838C11.9598 32.4574 11.6999 32.2725 11.4857 32.0408L1.40192 21.3962C0.954599 20.9137 0.706055 20.28 0.706055 19.6221C0.706055 18.9641 0.954599 18.3305 1.40192 17.848L11.4857 7.20099C11.6999 6.96929 11.9598 6.78442 12.249 6.65798C12.5381 6.53154 12.8503 6.46628 13.1659 6.46628C13.4815 6.46628 13.7937 6.53154 14.0828 6.65798C14.372 6.78442 14.6319 6.96929 14.8461 7.20099C15.2931 7.68413 15.5414 8.3181 15.5414 8.97628C15.5414 9.63447 15.2931 10.2684 14.8461 10.7516L6.44261 19.6209ZM42.4998 19.6209L34.0963 10.7516C33.649 10.2691 33.4004 9.63542 33.4004 8.97747C33.4004 8.31952 33.649 7.68586 34.0963 7.20337C34.3106 6.97167 34.5704 6.7868 34.8596 6.66036C35.1488 6.53392 35.4609 6.46865 35.7765 6.46865C36.0921 6.46865 36.4043 6.53392 36.6934 6.66036C36.9826 6.7868 37.2425 6.97167 37.4567 7.20337L47.5405 17.848C48.4674 18.8271 48.4674 20.4147 47.5405 21.3962L37.4567 32.0384C37.2425 32.2701 36.9826 32.455 36.6934 32.5814C36.4043 32.7079 36.0921 32.7732 35.7765 32.7732C35.4609 32.7732 35.1488 32.7079 34.8596 32.5814C34.5704 32.455 34.3106 32.2701 34.0963 32.0384C33.6496 31.5561 33.4015 30.9229 33.4015 30.2655C33.4015 29.6081 33.6496 28.975 34.0963 28.4926L42.4998 19.6209Z" fill="#386ADB"/>
</svg>
